<svg width="294" height="294" viewBox="0 0 294 294" fill="none" xmlns="http://www.w3.org/2000/svg">
<circle cx="147" cy="147" r="147" fill="#2F455C"/>
<mask id="mask0_3_27" style="mask-type:alpha" maskUnits="userSpaceOnUse" x="97" y="31" width="101" height="210">
<path d="M111.335 158.724C121.817 160.688 132.654 160.529 143.059 158.258C153.463 155.987 163.171 151.662 171.475 145.598C179.778 139.534 186.469 131.883 191.058 123.205C195.646 114.526 198.018 105.038 198 95.4332C197.982 85.8279 195.574 76.3474 190.952 67.683C186.329 59.0187 179.61 51.389 171.283 45.3503C162.956 39.3117 153.232 35.0164 142.819 32.7776C132.406 30.5389 121.568 30.4131 111.094 32.4096L117.076 57.6633C123.36 56.4654 129.863 56.5408 136.111 57.8841C142.358 59.2273 148.193 61.8045 153.189 65.4277C158.185 69.0509 162.217 73.6287 164.99 78.8273C167.764 84.0259 169.208 89.7143 169.219 95.4774C169.23 101.241 167.807 106.933 165.054 112.14C162.301 117.348 158.287 121.938 153.304 125.576C148.322 129.215 142.497 131.81 136.255 133.172C130.012 134.535 123.509 134.63 117.221 133.452L111.335 158.724Z" fill="black"/>
<rect x="97.2683" y="123.943" width="30.2195" height="116.179" fill="black"/>
<path d="M109.5 145.888C121.122 145.888 132.63 147.073 143.367 149.376C154.105 151.679 163.861 155.055 172.079 159.31C180.297 163.565 186.816 168.617 191.263 174.177C195.711 179.737 198 185.696 198 191.714L167.873 191.714C167.873 187.745 166.363 183.814 163.43 180.147C160.496 176.48 156.196 173.148 150.776 170.341C145.356 167.534 138.921 165.308 131.838 163.789C124.756 162.27 117.166 161.488 109.5 161.488L109.5 145.888Z" fill="black"/>
<rect x="167.78" y="191.069" width="30.2195" height="49.0533" fill="black"/>
</mask>
<g mask="url(#mask0_3_27)">
<rect x="81.439" y="21.9639" width="133.829" height="228.485" fill="url(#paint0_linear_3_27)"/>
</g>
<ellipse cx="114.455" cy="44.4557" rx="13.455" ry="13.4557" fill="#34F5C5"/>
<defs>
<linearGradient id="paint0_linear_3_27" x1="92.5" y1="31.897" x2="181.657" y2="247.395" gradientUnits="userSpaceOnUse">
<stop offset="0.123853" stop-color="#1DCDFE"/>
<stop offset="0.921056" stop-color="#21D0B2"/>
</linearGradient>
</defs>
</svg>
